{"title":"FPJ Classics Ang Haragan vcdrip XviD","uid":5674856,"size":1054858551,"categoryP":"other","categoryS":"other","magnet":"?xt=urn:btih:4280c8fce291c990339e6a2dcff008cbb9e37169&amp;dn=FPJ+Classics+Ang+Haragan+vcdrip+XviD&amp;tr=udp%3A%2F%2Ftracker.openbittorrent.com%3A80&amp;tr=udp%3A%2F%2Fopen.demonii.com%3A1337&amp;tr=udp%3A%2F%2Ftracker.coppersurfer.tk%3A6969&amp;tr=udp%3A%2F%2Fexodus.desync.com%3A6969","seeders":2,"leechers":2,"uploader":null,"files":3,"time":1278484146,"description":"fpj classics movie rip from vcd in xvid avi\n\nwith sample\nGeneral\nComplete name                    : D:UPLOADSFPJ CLASSICSAng Haraganang haragan.avi\nFormat                           : AVI\nFormat/Info                      : Audio Video Interleave\nFile size                        : 999 MiB\nDuration                         : 1h 38mn\nOverall bit rate                 : 1 417 Kbps\nWriting application              : VirtualDubMod 1.5.4.1 (build 2178/release)\nWriting library                  : VirtualDubMod build 2178/release\n\nVideo\nID                               : 0\nFormat                           : MPEG-4 Visual\nFormat profile                   : Advanced Simple@L5\nFormat settings, BVOP            : Yes\nFormat settings, QPel            : No\nFormat settings, GMC             : No warppoints\nFormat settings, Matrix          : Default (H.263)\nMuxing mode                      : Packed bitstream\nCodec ID                         : XVID\nCodec ID/Hint                    : XviD\nDuration                         : 1h 38mn\nBit rate                         : 1 297 Kbps\nWidth                            : 576 pixels\nHeight                           : 432 pixels\nDisplay aspect ratio             : 4:3\nFrame rate                       : 29.970 fps\nColor space                      : YUV\nChroma subsampling               : 4:2:0\nBit depth                        : 8 bits\nScan type                        : Progressive\nBits/(Pixel*Frame)               : 0.174\nStream size                      : 914 MiB (91%)\nWriting library                  : XviD 1.2.1 (UTC 2008-12-04)\n\nAudio\nID                               : 1\nFormat                           : MPEG Audio\nFormat version                   : Version 1\nFormat profile                   : Layer 3\nMode                             : Joint stereo\nMode extension                   : MS Stereo\nCodec ID                         : 55\nCodec ID/Hint                    : MP3\nDuration                         : 1h 38mn\nBit rate mode                    : Variable\nBit rate                         : 107 Kbps\nNominal bit rate                 : 128 Kbps\nChannel(s)                       : 2 channels\nSampling rate                    : 48.0 KHz\nStream size                      : 75.1 MiB (8%)\nAlignment                        : Aligned on interleaves\nInterleave, duration             : 24 ms (0.72 video frame)\nInterleave, preload duration     : 453 ms\nWriting library                  : LAME3.98r\nEncoding settings                : -m j -V 4 -q 2 -lowpass 17 --abr 128\n","torrent":{"xt":"urn:btih:4280c8fce291c990339e6a2dcff008cbb9e37169","amp;dn":"FPJ+Classics+Ang+Haragan+vcdrip+XviD","amp;tr":["udp%3A%2F%2Ftracker.openbittorrent.com%3A80","udp%3A%2F%2Fopen.demonii.com%3A1337","udp%3A%2F%2Ftracker.coppersurfer.tk%3A6969","udp%3A%2F%2Fexodus.desync.com%3A6969"],"infoHash":"4280c8fce291c990339e6a2dcff008cbb9e37169","infoHashBuffer":{"type":"Buffer","data":[66,128,200,252,226,145,201,144,51,158,106,45,207,240,8,203,185,227,113,105]},"announce":[],"urlList":[]}}